<svg xmlns="http://www.w3.org/2000/svg" width="1771.94" height="1120.379" viewBox="0 0 1771.94 1120.379">
  <metadata><?xpacket begin="﻿" id="W5M0MpCehiHzreSzNTczkc9d"?>
<x:xmpmeta xmlns:x="adobe:ns:meta/" x:xmptk="Adobe XMP Core 5.6-c142 79.160924, 2017/07/13-01:06:39        ">
   <rdf:RDF xmlns:rdf="http://www.w3.org/1999/02/22-rdf-syntax-ns#">
      <rdf:Description rdf:about=""/>
   </rdf:RDF>
</x:xmpmeta>
                                                                                                    
                                                                                                    
                                                                                                    
                                                                                                    
                                                                                                    
                                                                                                    
                                                                                                    
                                                                                                    
                                                                                                    
                                                                                                    
                                                                                                    
                                                                                                    
                                                                                                    
                                                                                                    
                                                                                                    
                                                                                                    
                                                                                                    
                                                                                                    
                                                                                                    
                                                                                                    
                           
<?xpacket end="w"?></metadata>
<defs>
    <style>
      .cls-1 {
        fill-rule: evenodd;
      }
    </style>
  </defs>
  <path id="AntiEntropy" class="cls-1" d="M345.591,1072.15a356.234,356.234,0,0,1,65.853-159.935c45.248-61.1,108.976-105.606,181.749-128.442-78.971,27.165-165.62,23.978-241.33-12.544C301.842,747.1,213.937,687.973,190.5,580.068c-15.988-73.6-5.34-186.082,76.7-246.039,34.445-25.173,115.98-48.471,235.058-15.679,58.165,16.017,109.889,43.843,161.5,84.539,74.5,58.748,124.479,129.515,158.23,178.747,41.579,60.65,84.295,109.349,127,169.209,50.476,70.749,107.559,154.5,161.369,235.064,33.71,50.481,66.94,100.811,100.34,151.961-27.21-62.88-55.53-123.61-86.23-184.888-59.24-118.253-124.31-206.072-183.318-324.437C922.728,591.61,876.733,508.06,828.251,443.656c-45.98-61.081-90.119-105.534-134.711-137.85-68.812-49.869-147.571-82.867-231.922-98.781,48.517-19.4,100.163-25.32,150.39-15.68,22.671,4.351,72.59,23.9,117.594,54.879a444.8,444.8,0,0,1,79.834,70.558A507.724,507.724,0,0,1,735.743,164.69,506.95,506.95,0,0,1,715.491,25.272,349.1,349.1,0,0,1,654.342,62.9C603.935,87.14,565.957,90.411,516.365,98.966c-45.211,7.8-88.97,18.407-119.032,29.791C350.47,146.5,303.136,173,256.22,210.161,195.178,258.5,150.513,314.5,132.484,348.141c-24.359,45.46-48.7,126.438-43.9,231.927,3.334,73.337,23.3,151.564,62.717,227.224,9.859,18.923,23.256,40.941,37.631,62.588,20.174,30.381,40.571,55.49,64.154,84.67,19.106,23.641,37.641,47.34,56.445,72.13ZM1602.35,98.791a356.131,356.131,0,0,1-65.86,159.931c-45.24,61.1-108.97,105.605-181.75,128.441,78.98-27.165,165.63-23.977,241.34,12.544,50.02,24.13,137.92,83.255,161.36,191.16,15.99,73.6,5.34,186.081-76.7,246.037-34.44,25.173-115.98,48.471-235.06,15.68-58.16-16.017-109.89-43.843-161.49-84.539-74.5-58.748-124.48-129.514-158.23-178.746-41.58-60.649-84.3-109.349-127.006-169.209-50.476-70.748-107.56-154.5-161.367-235.062-33.714-50.479-66.946-100.806-100.348-151.96,27.212,62.875,55.539,123.607,86.237,184.887,59.237,118.252,124.306,206.07,183.314,324.436,18.42,36.934,64.41,120.484,112.89,184.887,45.99,61.081,90.12,105.534,134.72,137.849,68.81,49.869,147.57,82.867,231.92,98.781-48.52,19.4-100.16,25.32-150.39,15.68-22.67-4.351-72.59-23.9-117.6-54.878a445.027,445.027,0,0,1-79.83-70.558,506.927,506.927,0,0,1,93.95,291.508,348.458,348.458,0,0,1,61.14-37.63c50.41-24.24,88.39-27.51,137.98-36.06,45.21-7.8,88.97-18.41,119.04-29.79,46.86-17.75,94.19-44.251,141.11-81.407,61.04-48.344,105.71-104.335,123.74-137.98,24.36-45.461,48.69-126.438,43.9-231.926-3.34-73.337-23.3-151.563-62.72-227.223-9.86-18.923-23.26-40.941-37.63-62.587-20.17-30.381-40.57-55.49-64.15-84.67-19.11-23.641-37.65-47.339-56.45-72.126Z" transform="translate(-88 -25.281)"/>
</svg>
